HIERARCHY
ROOT root
{
  OFFSET 0 95.9893 0
  CHANNELS 6 Xposition Yposition Zposition Zrotation Xrotation Yrotation
  JOINT torso_1
  {
    OFFSET 0 5.22546 -1.18466
    CHANNELS 6 Xposition Yposition Zposition Zrotation Xrotation Yrotation
    JOINT torso_2
    {
      OFFSET 0 5.77894 1.10239
      CHANNELS 6 Xposition Yposition Zposition Zrotation Xrotation Yrotation
      JOINT torso_3
      {
        OFFSET -1.0557e-17 6.16289 0.118334
        CHANNELS 6 Xposition Yposition Zposition Zrotation Xrotation Yrotation
        JOINT torso_4
        {
          OFFSET -1.13649e-17 6.69386 -0.456341
          CHANNELS 6 Xposition Yposition Zposition Zrotation Xrotation Yrotation
          JOINT torso_5
          {
            OFFSET -2.02997e-17 7.82529 -1.54945
            CHANNELS 6 Xposition Yposition Zposition Zrotation Xrotation Yrotation
            JOINT torso_6
            {
              OFFSET -2.60628e-17 9.77186 -0.940923
              CHANNELS 6 Xposition Yposition Zposition Zrotation Xrotation Yrotation
              JOINT torso_7
              {
                OFFSET -2.98794e-17 10.8563 1.62248
                CHANNELS 6 Xposition Yposition Zposition Zrotation Xrotation Yrotation
                JOINT neck_1
                {
                  OFFSET -1.32927e-17 4.92478 0.736013
                  CHANNELS 6 Xposition Yposition Zposition Zrotation Xrotation Yrotation
                  JOINT neck_2
                  {
                    OFFSET -1.86396e-17 4.96043 0.433981
                    CHANNELS 6 Xposition Yposition Zposition Zrotation Xrotation Yrotation
                    JOINT head
                    {
                      OFFSET -2.06766e-17 4.97002 0.787173
                      CHANNELS 6 Xposition Yposition Zposition Zrotation Xrotation Yrotation
                      End Site
                      {
                        OFFSET 0 0.1 0
                      }
                    }
                  }
                }
                JOINT l_shoulder
                {
                  OFFSET 1.26863 -7.82717 7.75148
                  CHANNELS 6 Xposition Yposition Zposition Zrotation Xrotation Yrotation
                  JOINT l_up_arm
                  {
                    OFFSET 13.3291 3.34342 -3.36319
                    CHANNELS 6 Xposition Yposition Zposition Zrotation Xrotation Yrotation
                    JOINT l_low_arm
                    {
                      OFFSET 30.0522 0.0615366 0.141
                      CHANNELS 6 Xposition Yposition Zposition Zrotation Xrotation Yrotation
                      JOINT l_hand
                      {
                        OFFSET 24.9344 0.0510561 0.116988
                        CHANNELS 6 Xposition Yposition Zposition Zrotation Xrotation Yrotation
                        End Site
                        {
                          OFFSET 0.1 0 0
                        }
                      }
                    }
                  }
                }
                JOINT r_shoulder
                {
                  OFFSET -1.26863 -7.82715 7.75138
                  CHANNELS 6 Xposition Yposition Zposition Zrotation Xrotation Yrotation
                  JOINT r_up_arm
                  {
                    OFFSET -13.3291 3.34342 -3.36319
                    CHANNELS 6 Xposition Yposition Zposition Zrotation Xrotation Yrotation
                    JOINT r_low_arm
                    {
                      OFFSET -30.0522 0.0615366 0.141
                      CHANNELS 6 Xposition Yposition Zposition Zrotation Xrotation Yrotation
                      JOINT r_hand
                      {
                        OFFSET -24.9344 0.0510559 0.116988
                        CHANNELS 6 Xposition Yposition Zposition Zrotation Xrotation Yrotation
                        End Site
                        {
                          OFFSET -0.1 0 0
                        }
                      }
                    }
                  }
                }
              }
            }
          }
        }
      }
    }
  }
  JOINT l_up_leg
  {
    OFFSET 9.50369 -4.32711 2.09145
    CHANNELS 6 Xposition Yposition Zposition Zrotation Xrotation Yrotation
    JOINT l_low_leg
    {
      OFFSET -0.876987 -39.8926 -0.674123
      CHANNELS 6 Xposition Yposition Zposition Zrotation Xrotation Yrotation
      JOINT l_foot
      {
        OFFSET -2.39345 -41.5694 -6.22357
        CHANNELS 6 Xposition Yposition Zposition Zrotation Xrotation Yrotation
        JOINT l_toes
        {
          OFFSET 0.801613 -10.1701 12.8571
          CHANNELS 6 Xposition Yposition Zposition Zrotation Xrotation Yrotation
          End Site
          {
            OFFSET 0 0 0.1
          }
        }
      }
    }
  }
  JOINT r_up_leg
  {
    OFFSET -9.50369 -4.32711 2.09145
    CHANNELS 6 Xposition Yposition Zposition Zrotation Xrotation Yrotation
    JOINT r_low_leg
    {
      OFFSET 0.876987 -39.8926 -0.674123
      CHANNELS 6 Xposition Yposition Zposition Zrotation Xrotation Yrotation
      JOINT r_foot
      {
        OFFSET 2.39345 -41.5694 -6.22357
        CHANNELS 6 Xposition Yposition Zposition Zrotation Xrotation Yrotation
        JOINT r_toes
        {
          OFFSET -0.801613 -10.1701 12.8571
          CHANNELS 6 Xposition Yposition Zposition Zrotation Xrotation Yrotation
          End Site
          {
            OFFSET 0 0 0.1
          }
        }
      }
    }
  }
}
MOTION
Frames: 4
Frame Time: 0.016667
968.546 99.8237 1764.81 18.3557 -20.5827 -175.057 0 5.22546 -1.18466 3.83874 3.00144 -1.62133 0 5.77894 1.10239 3.94507 2.26514 -1.11557 -1.0557e-17 6.16289 0.118334 3.41919 1.18777 -0.982865 -1.13649e-17 6.69386 -0.456341 2.86198 -0.595918 -0.949067 -2.02997e-17 7.82529 -1.54945 1.79984 -1.38098 -1.40733 -2.60628e-17 9.77186 -0.940923 0.569007 -2.29777 -1.43207 -2.98794e-17 10.8563 1.62248 -0.54335 1.1513 0.720385 -1.32927e-17 4.92478 0.736013 0.127527 -2.15194 -1.14266 -1.86396e-17 4.96043 0.433981 0.79867 -6.88723 -0.0971369 -2.06766e-17 4.97002 0.787173 5.16703 -11.1686 3.61868 1.26863 -7.82717 7.75148 12.0074 -0.00446907 1.20519 13.3291 3.34342 -3.36319 -68.6613 12.7226 -7.86955 30.0522 0.0615366 0.141 11.1108 -16.4718 -112.792 24.9344 0.0510561 0.116988 2.91119 -41.3098 -7.78487 -1.26863 -7.82715 7.75138 -8.55151 9.50085 1.6205 -13.3291 3.34342 -3.36319 98.9544 27.9116 -23.9268 -30.0522 0.0615366 0.141 -4.09923 -0.706316 20.1389 -24.9344 0.0510559 0.116988 10.9131 -43.1955 -0.170658 9.50369 -4.32711 2.09145 7.4073 -6.74919 -11.2327 -0.876987 -39.8926 -0.674123 1.22303 -4.54123 0.127828 -2.39345 -41.5694 -6.22357 10.4654 -12.0168 15.5734 0.801613 -10.1701 12.8571 1.61166e-15 -6.03253e-16 -2.60465e-16 -9.50369 -4.32711 2.09145 38.0639 -57.837 61.9084 0.876987 -39.8926 -0.674123 48.6754 71.3504 -34.4201 2.39345 -41.5694 -6.22357 2.75871 0.691432 -15.1705 -0.801613 -10.1701 12.8571 -4.99104e-16 -3.90248e-16 -1.25826e-14 
969.862 97.8324 1760.36 18.2887 -17.5297 -174.908 0 5.22546 -1.18466 3.96343 3.63075 -1.5184 0 5.77894 1.10239 4.00468 2.70875 -0.956692 -1.0557e-17 6.16289 0.118334 3.45196 1.57341 -0.797336 -1.13649e-17 6.69386 -0.456341 2.86493 -0.370541 -0.743065 -2.02997e-17 7.82529 -1.54945 1.83516 -1.37857 -1.21369 -2.60628e-17 9.77186 -0.940923 0.645654 -2.31329 -1.26073 -2.98794e-17 10.8563 1.62248 -0.546727 1.14937 0.738347 -1.32927e-17 4.92478 0.736013 0.130688 -1.79397 -1.54296 -1.86396e-17 4.96043 0.433981 0.890666 -7.2113 -0.278925 -2.06766e-17 4.97002 0.787173 4.15694 -10.3069 3.12256 1.26863 -7.82717 7.75148 12.047 -0.264762 0.652194 13.3291 3.34342 -3.36319 -69.0127 10.9554 -9.83015 30.0522 0.0615366 0.141 11.0147 -16.688 -113.952 24.9344 0.0510561 0.116988 3.60256 -43.077 -5.68882 -1.26863 -7.82715 7.75138 -9.19405 9.60261 1.55699 -13.3291 3.34342 -3.36319 101.437 32.1407 -25.2215 -30.0522 0.0615366 0.141 -4.19486 -0.741286 20.6285 -24.9344 0.0510559 0.116988 10.2232 -43.4044 -1.88834 9.50369 -4.32711 2.09145 6.57785 -4.41982 -9.57733 -0.876987 -39.8926 -0.674123 1.23995 -4.60361 0.130267 -2.39345 -41.5694 -6.22357 11.3765 -12.8489 15.8206 0.801613 -10.1701 12.8571 1.69314e-15 -5.99733e-16 -2.62808e-16 -9.50369 -4.32711 2.09145 33.3231 -54.6792 57.7236 0.876987 -39.8926 -0.674123 35.9744 66.5266 -22.6625 2.39345 -41.5694 -6.22357 2.74603 -1.70658 -15.2716 -0.801613 -10.1701 12.8571 -2.02555e-16 -4.03061e-16 -1.25919e-14 
970.916 95.4321 1755.7 18.0546 -12.2936 -172.717 0 5.22546 -1.18466 4.04374 5.03756 -1.56925 0 5.77894 1.10239 4.02926 3.77224 -0.958749 -1.0557e-17 6.16289 0.118334 3.47467 2.46209 -0.775212 -1.13649e-17 6.69386 -0.456341 2.86236 0.0630501 -0.692386 -2.02997e-17 7.82529 -1.54945 1.86445 -1.40735 -1.16646 -2.60628e-17 9.77186 -0.940923 0.690505 -2.42987 -1.23357 -2.98794e-17 10.8563 1.62248 -0.545969 1.20541 0.761227 -1.32927e-17 4.92478 0.736013 0.269245 -0.792751 -2.04632 -1.86396e-17 4.96043 0.433981 1.2588 -7.84298 -0.533538 -2.06766e-17 4.97002 0.787173 2.90895 -10.4492 1.49109 1.26863 -7.82717 7.75148 12.1472 -0.404133 0.0838761 13.3291 3.34342 -3.36319 -69.9054 9.30628 -12.5764 30.0522 0.0615366 0.141 11.0121 -16.6938 -113.984 24.9344 0.0510561 0.116988 1.84224 -44.8017 -5.58183 -1.26863 -7.82715 7.75138 -10.052 9.66923 1.45847 -13.3291 3.34342 -3.36319 104.059 35.7251 -26.106 -30.0522 0.0615366 0.141 -4.14847 -0.724202 20.3908 -24.9344 0.0510559 0.116988 11.195 -43.4386 -1.5515 9.50369 -4.32711 2.09145 5.60664 -0.506505 -13.1963 -0.876987 -39.8926 -0.674123 0.433573 -1.61583 0.0343228 -2.39345 -41.5694 -6.22357 12.3409 -14.3655 16.1715 0.801613 -10.1701 12.8571 3.30951e-16 -6.58586e-16 -2.05066e-16 -9.50369 -4.32711 2.09145 26.2861 -51.0203 50.2148 0.876987 -39.8926 -0.674123 27.8415 61.2185 -15.4583 2.39345 -41.5694 -6.22357 3.00144 -4.78401 -15.3748 -0.801613 -10.1701 12.8571 -1.01534e-16 -4.07425e-16 -1.25982e-14 
971.842 92.681 1750.93 17.4788 -6.1532 -170.468 0 5.22546 -1.18466 4.22282 6.9919 -1.79178 0 5.77894 1.10239 4.13672 5.22881 -1.13971 -1.0557e-17 6.16289 0.118334 3.57539 3.61214 -0.938541 -1.13649e-17 6.69386 -0.456341 2.93138 0.539333 -0.830494 -2.02997e-17 7.82529 -1.54945 1.91912 -1.57281 -1.30161 -2.60628e-17 9.77186 -0.940923 0.683666 -2.79524 -1.3647 -2.98794e-17 10.8563 1.62248 -0.560469 1.28971 0.779011 -1.32927e-17 4.92478 0.736013 0.470912 0.0335585 -2.10066 -1.86396e-17 4.96043 0.433981 1.43261 -8.50989 -0.631187 -2.06766e-17 4.97002 0.787173 1.84879 -10.8675 0.106719 1.26863 -7.82717 7.75148 12.6952 -0.513068 -0.121346 13.3291 3.34342 -3.36319 -70.7845 8.42047 -15.1258 30.0522 0.0615366 0.141 11.0968 -16.5041 -112.964 24.9344 0.0510561 0.116988 0.996778 -46.6193 -5.86255 -1.26863 -7.82715 7.75138 -10.8706 9.73282 1.47063 -13.3291 3.34342 -3.36319 106.423 38.8851 -26.8409 -30.0522 0.0615366 0.141 -4.15467 -0.726469 20.4226 -24.9344 0.0510559 0.116988 11.6453 -42.1946 -1.40473 9.50369 -4.32711 2.09145 5.80921 4.38503 -16.1562 -0.876987 -39.8926 -0.674123 -1.51601 5.65741 -0.0239145 -2.39345 -41.5694 -6.22357 12.2959 -18.0877 16.5169 0.801613 -10.1701 12.8571 1.68012e-15 -6.00295e-16 -2.65354e-16 -9.50369 -4.32711 2.09145 19.7816 -46.7105 42.1291 0.876987 -39.8926 -0.674123 21.9975 55.4471 -10.5872 2.39345 -41.5694 -6.22357 2.64437 -9.19043 -15.4824 -0.801613 -10.1701 12.8571 -7.02589e-18 -4.11508e-16 -1.26073e-14 
